<?xml version="1.0" standalone="no"?>
<!DOCTYPE svg PUBLIC "-//W3C//DTD SVG 20010904//EN"
 "http://www.w3.org/TR/2001/REC-SVG-20010904/DTD/svg10.dtd">
<svg version="1.0" xmlns="http://www.w3.org/2000/svg"
 width="250.000000pt" height="250.000000pt" viewBox="0 0 250.000000 250.000000"
 preserveAspectRatio="xMidYMid meet">
<metadata>
Created by potrace 1.12, written by Peter Selinger 2001-2015
</metadata>
<g transform="translate(0.000000,250.000000) scale(0.100000,-0.100000)"
fill="#000000" stroke="none">
<path d="M1040 2454 c-256 -46 -480 -163 -660 -344 -181 -181 -297 -402 -341
-650 -20 -110 -17 -346 5 -450 36 -168 90 -298 184 -440 223 -337 603 -540
1010 -540 337 0 627 117 862 349 241 238 364 534 363 876 -1 530 -333 985
-841 1155 -172 57 -410 75 -582 44z m450 -310 c107 -93 255 -222 329 -286
l134 -118 144 0 143 0 0 -160 0 -160 -35 0 c-28 0 -35 -4 -35 -19 0 -10 -9
-21 -20 -24 -19 -5 -20 -14 -20 -310 0 -296 1 -305 20 -310 12 -3 20 -14 20
-26 0 -17 6 -21 35 -21 l35 0 0 -75 0 -75 -325 0 -325 0 0 75 0 75 40 0 c36 0
40 3 40 25 0 16 6 25 15 25 13 0 15 41 15 310 0 269 -2 310 -15 310 -8 0 -15
9 -15 20 0 17 -7 20 -40 20 -37 0 -39 2 -46 38 -29 158 -215 276 -381 242
-145 -30 -251 -124 -269 -237 -6 -42 -7 -43 -45 -43 -32 0 -39 -4 -39 -19 0
-10 -9 -21 -19 -24 -19 -5 -20 -16 -21 -310 0 -298 0 -305 20 -310 12 -3 20
-13 20 -26 0 -17 6 -21 34 -21 l34 0 4 -75 3 -75 -322 0 -323 0 0 75 0 75 35
0 c31 0 35 3 35 25 0 16 6 25 15 25 13 0 15 41 15 310 0 269 -2 310 -15 310
-8 0 -15 9 -15 20 0 16 -7 20 -35 20 l-35 0 0 160 0 160 141 0 141 0 112 98
c422 366 571 497 575 505 2 5 13 0 25 -11 11 -10 109 -95 216 -188z"/>
<path d="M530 1400 c0 -11 -7 -20 -15 -20 -13 0 -15 -41 -15 -309 0 -265 2
-310 15 -315 8 -3 15 -15 15 -26 0 -18 6 -20 70 -20 68 0 70 1 70 25 0 16 6
25 15 25 13 0 15 41 15 310 0 269 -2 310 -15 310 -8 0 -15 9 -15 20 0 18 -7
20 -70 20 -63 0 -70 -2 -70 -20z"/>
<path d="M1850 1400 c0 -11 -7 -20 -15 -20 -13 0 -15 -41 -15 -309 0 -265 2
-310 15 -315 8 -3 15 -15 15 -26 0 -18 6 -20 70 -20 68 0 70 1 70 25 0 16 6
25 15 25 13 0 15 41 15 310 0 269 -2 310 -15 310 -8 0 -15 9 -15 20 0 18 -7
20 -70 20 -63 0 -70 -2 -70 -20z"/>
</g>
</svg>
